<?xml version="1.0" encoding="UTF-8"?>
<svg xmlns="http://www.w3.org/2000/svg" 
     width="815" height="290" 
     viewBox="0 0 815 290"
     preserveAspectRatio="xMidYMid meet">
  <defs>
    <linearGradient id="gold" x1="0.5" y1="0" x2="0.5" y2="1">
      <stop offset="0%" stop-color="#E8A84C"/>
      <stop offset="30%" stop-color="#D49A42"/>
      <stop offset="60%" stop-color="#BE8438"/>
      <stop offset="100%" stop-color="#A06E3A"/>
    </linearGradient>
  </defs>
  
  <g transform="translate(0,290) scale(0.1,-0.1)" fill="url(#gold)" stroke="none">
    <path d="M3988 2804 c-2 -1 -39 -4 -83 -5 -105 -2 -283 -25 -425 -54 -133 -27 -406 -111 -530 -162 -140 -57 -312 -149 -432 -230 -62 -42 -167 -120 -233 -174 -200 -162 -392 -371 -501 -549 -23 -36 -59 -104 -82 -152 -45 -94 -83 -190 -78 -195 4 -4 283 32 441 57 217 34 399 59 465 65 36 3 187 16 335 30 149 13 297 27 330 30 33 2 220 9 415 14 402 11 1005 6 1280 -9 296 -17 714 -55 925 -85 55 -7 181 -25 280 -40 303 -43 450 -63 452 -61 1 1 -14 39 -34 85 -44 103 -122 246 -176 326 -143 212 -374 437 -632 617 -204 143 -468 273 -725 357 -119 38 -270 75 -425 101 -82 14 -185 22 -325 26 -113 3 -213 7 -222 8 -9 2 -18 2 -20 0z m317 -54 c72 -6 186 -20 255 -31 303 -49 562 -143 875 -320 163 -92 397 -278 530 -421 88 -95 175 -209 231 -304 53 -91 137 -255 132 -260 -4 -3 -314 37 -407 53 l-44 8 -42 105 c-50 127 -93 212 -147 294 -67 99 -172 219 -266 304 -91 81 -219 172 -327 232 -168 93 -367 177 -495 210 -177 45 -233 51 -495 49 -137 -1 -261 -2 -275 -4 -104 -9 -165 -19 -230 -36 -86 -23 -263 -87 -359 -131 -90 -42 -190 -100 -291 -172 -134 -94 -237 -183 -318 -276 -41 -47 -104 -129 -139 -182 -67 -102 -138 -244 -172 -344 l-19 -59 -59 -8 c-143 -19 -398 -45 -402 -42 -8 9 44 119 99 209 32 52 91 139 131 193 40 54 121 145 179 204 58 58 141 134 185 168 95 76 249 179 362 244 193 110 411 193 677 256 132 32 350 61 511 69 83 4 159 6 170 5 11 -1 79 -7 150 -13z m-557 -174 c-48 -24 -112 -61 -145 -82 -67 -45 -200 -176 -267 -263 -61 -79 -133 -201 -166 -281 -26 -65 -77 -242 -101 -352 -10 -48 -16 -58 -33 -58 -12 0 -91 -7 -176 -15 -230 -23 -374 -34 -379 -30 -6 7 40 125 84 216 50 100 78 146 153 248 65 88 229 254 319 324 82 62 216 148 289 185 102 51 305 122 389 136 44 8 89 14 99 15 11 1 -19 -19 -66 -43z m513 6 c48 -16 119 -51 159 -76 67 -43 159 -127 222 -203 62 -73 97 -133 138 -233 24 -58 54 -143 67 -190 13 -47 30 -134 38 -195 7 -60 13 -111 11 -112 -1 -1 -370 -4 -819 -6 l-817 -3 0 20 c0 41 39 223 70 324 30 102 86 225 138 306 59 91 117 159 192 224 44 38 106 83 138 100 32 17 96 42 142 57 69 20 100 24 160 21 47 -3 107 -15 161 -34z m180 23 c89 -17 243 -65 326 -101 96 -42 247 -131 335 -196 46 -34 125 -99 176 -146 51 -47 125 -126 166 -176 40 -50 91 -122 113 -161 60 -107 141 -311 128 -323 -2 -3 -62 1 -132 7 -70 6 -177 16 -238 22 -60 5 -133 12 -160 15 l-51 5 -23 112 c-12 62 -37 153 -53 202 -36 106 -93 223 -154 315 -23 36 -77 102 -120 148 -117 126 -239 211 -404 280 -21 9 -22 11 -5 11 11 1 54 -6 96 -14z"/>
    <path d="M232 674 c-29 -7 -66 -21 -83 -29 -16 -9 -39 -30 -49 -48 -11 -18 -20 -49 -20 -70 0 -21 7 -51 15 -68 25 -48 86 -78 214 -106 190 -41 220 -51 233 -78 6 -13 8 -35 4 -50 -5 -19 -20 -33 -54 -48 -38 -17 -65 -21 -137 -21 -54 1 -114 8 -150 18 -33 10 -65 22 -72 28 -7 5 -17 7 -23 3 -17 -11 -42 -67 -33 -75 4 -5 31 -16 58 -25 66 -23 273 -32 358 -15 34 6 78 20 98 31 20 10 48 32 63 49 20 24 26 43 26 77 0 25 -8 58 -17 73 -9 16 -39 40 -67 54 -29 15 -107 37 -178 51 -70 14 -138 29 -150 34 -36 14 -60 46 -56 77 2 16 15 36 31 48 25 19 42 21 150 20 99 0 132 -4 174 -21 l51 -20 13 26 c7 14 15 29 17 33 6 12 -68 38 -146 54 -41 8 -106 14 -145 13 -40 0 -96 -7 -125 -15z"/>
    <path d="M5628 675 c-67 -17 -129 -46 -178 -85 -20 -16 -46 -50 -60 -76 -13 -27 -26 -73 -28 -102 -7 -79 13 -152 53 -199 18 -22 60 -53 92 -70 32 -17 87 -39 123 -48 49 -13 91 -16 175 -12 76 3 129 11 170 26 33 12 82 38 109 59 32 23 60 57 78 91 23 44 28 66 28 125 0 57 -5 83 -26 124 -14 28 -39 63 -56 77 -38 32 -110 69 -163 84 -22 6 -89 14 -150 16 -77 3 -127 0 -167 -10z m303 -92 c26 -12 61 -36 78 -53 17 -18 36 -51 42 -74 6 -23 9 -63 5 -90 -3 -26 -16 -67 -30 -90 -14 -24 -43 -55 -65 -69 -22 -15 -59 -31 -83 -37 -62 -14 -158 -12 -212 4 -27 8 -65 26 -85 40 -21 15 -47 44 -59 65 -12 21 -25 59 -28 83 -3 24 -1 63 6 88 8 31 26 58 56 87 26 25 63 48 91 57 33 11 78 15 143 13 70 -2 107 -9 141 -24z"/>
    <path d="M790 663 c1 -5 75 -82 166 -173 l165 -165 -1 -90 c-2 -161 -9 -145 60 -145 l60 0 0 123 1 122 140 150 c76 83 144 158 150 168 9 15 4 17 -58 17 l-68 0 -100 -111 c-55 -61 -106 -118 -113 -127 -12 -16 -16 -14 -39 13 -14 17 -68 74 -119 128 l-94 97 -75 0 c-41 0 -75 -3 -75 -7z"/>
    <path d="M1706 390 c-4 -154 -4 -284 -1 -290 3 -5 31 -10 61 -10 l54 0 0 221 0 222 29 -24 c16 -13 109 -96 207 -184 282 -255 249 -231 322 -227 l62 4 0 284 0 284 -58 0 -59 0 1 -37 c0 -21 -1 -120 -2 -221 l-2 -183 -202 183 c-111 101 -221 200 -244 221 -39 34 -47 37 -102 37 l-59 0 -7 -280z"/>
    <path d="M2620 635 l0 -35 140 0 141 0 -1 -252 -1 -253 60 -3 61 -3 0 256 0 255 140 0 140 0 0 35 0 35 -340 0 -340 0 0 -35z"/>
    <path d="M3485 657 c-3 -7 -4 -136 -3 -287 l3 -275 63 -3 62 -3 0 136 0 135 208 0 c114 0 217 -3 230 -6 21 -6 22 -10 22 -135 l0 -129 60 0 60 0 0 290 0 290 -60 0 -59 0 -3 -122 -3 -123 -225 0 -225 0 -3 123 -3 122 -60 0 c-39 0 -61 -4 -64 -13z"/>
    <path d="M4440 379 l0 -291 223 5 c165 4 237 9 282 22 33 9 72 23 87 31 46 24 98 75 120 118 27 52 36 163 17 208 -20 52 -57 94 -108 127 -26 17 -83 40 -126 51 -66 17 -111 20 -287 20 l-208 0 0 -291z m435 206 c33 -9 77 -27 97 -41 20 -14 44 -41 53 -60 21 -45 22 -151 2 -191 -9 -17 -33 -45 -53 -61 -20 -16 -61 -38 -92 -48 -42 -13 -91 -18 -185 -18 l-127 -1 -1 210 c0 116 0 213 1 218 0 4 55 7 123 7 78 0 144 -6 182 -15z"/>
    <path d="M6402 383 l3 -288 53 -3 52 -3 0 225 c0 125 3 226 6 226 8 0 30 -26 161 -198 l117 -153 45 3 c44 3 47 5 116 94 38 51 98 129 133 174 l62 83 0 -227 0 -226 60 0 60 0 0 290 0 290 -74 0 c-66 0 -75 -2 -89 -24 -9 -13 -33 -44 -54 -68 -21 -25 -76 -98 -122 -162 -47 -64 -88 -115 -92 -114 -8 3 -174 216 -239 305 l-45 62 -78 1 -77 0 2 -287z"/>
    <path d="M7502 383 l3 -288 288 -3 287 -2 0 33 0 34 -210 7 c-115 4 -214 5 -220 1 -6 -4 -10 25 -10 84 l0 91 198 2 197 3 0 35 0 34 -65 1 c-36 0 -125 1 -197 3 l-133 2 0 90 0 90 215 0 215 0 0 35 0 35 -285 0 -285 0 2 -287z"/>
  </g>
</svg>